<svg width="310" height="286" viewBox="0 0 310 286" fill="none" xmlns="http://www.w3.org/2000/svg">
<g clip-path="url(#clip0)">
<path d="M91.8113 126.542C96.7883 126.542 101.567 128.495 105.118 131.982L553.099 588L580 562.851L131.9 105.117C130.169 103.378 128.797 101.316 127.864 99.0465C126.93 96.7775 126.453 94.3468 126.46 91.8933L126.46 31.7191C126.471 27.5647 125.664 23.4487 124.084 19.6063C122.504 15.764 120.183 12.2703 117.253 9.32494C114.324 6.37954 110.842 4.04007 107.008 2.44009C103.174 0.840118 99.0624 0.0109673 94.9079 -8.29711e-06L0 0L8.30428e-06 94.9899C-5.93408e-06 99.1404 0.818882 103.25 2.40976 107.084C4.00065 110.917 6.33226 114.399 9.27103 117.33C12.2098 120.261 15.698 122.583 19.5358 124.164C23.3735 125.745 27.4855 126.553 31.636 126.542L91.8113 126.542Z" fill="url(#paint0_linear)"/>
</g>
<defs>
<linearGradient id="paint0_linear" x1="-246.406" y1="-92.8635" x2="294.101" y2="382.646" gradientUnits="userSpaceOnUse">
<stop offset="0.0751687" stop-color="#23CDFF"/>
<stop offset="1" stop-color="#29CAF9" stop-opacity="0"/>
</linearGradient>
<clipPath id="clip0">
<rect width="310" height="286" fill="white"/>
</clipPath>
</defs>
</svg>
