<svg width="357" height="182" viewBox="0 0 357 182" fill="none" xmlns="http://www.w3.org/2000/svg">
<g clip-path="url(#clip0)">
<path d="M168.426 353.278L168.567 354.111H169.412H188.613H189.46L189.6 353.275C192.925 333.324 201.7 311.962 215.977 289.181C225.677 273.721 238.113 259.006 253.295 245.039L253.303 245.032C268.488 230.758 284.885 218.46 302.496 208.136C320.402 197.818 337.672 191.007 354.307 187.679L355.111 187.519V186.699V167.498V166.693L354.325 166.521C329.482 161.067 305.069 149.853 281.084 132.851C264.99 121.311 250.417 108.408 237.362 94.1397C224.613 79.5686 214.148 64.3989 205.961 48.6314C197.77 32.5519 192.32 16.9497 189.597 1.82285L189.449 1H188.613H169.412H168.588L168.43 1.80879C163.89 25.1166 153.44 48.7639 137.043 72.7526C120.96 96.1183 100.931 116.149 76.9497 132.845C53.2708 149.238 28.5453 160.46 2.77096 166.524L2 166.706V167.498V186.699V187.511L2.79514 187.678C28.8331 193.128 54.9114 205.701 81.0312 225.442L81.0357 225.446C107.472 245.197 127.799 266.596 142.045 289.632L142.048 289.637C156.326 312.421 165.101 333.632 168.426 353.278Z" fill="url(#paint0_linear)" fill-opacity="0.2" stroke="#0C1E3D" stroke-width="2"/>
</g>
<defs>
<linearGradient id="paint0_linear" x1="2.55518" y1="-232.832" x2="327.814" y2="236.004" gradientUnits="userSpaceOnUse">
<stop stop-color="#82FFE1"/>
<stop offset="1" stop-color="#00C4C4" stop-opacity="0"/>
</linearGradient>
<clipPath id="clip0">
<rect width="357" height="182" fill="white"/>
</clipPath>
</defs>
</svg>
